<svg width="295" height="99" viewBox="0 0 295 99" fill="none" xmlns="http://www.w3.org/2000/svg">
<g clip-path="url(#clip0)">
<path d="M125.964 12.3068C133.53 11.2104 141.223 13.1677 147.35 17.7481C153.477 22.3286 157.535 29.1568 158.632 36.7309C159.73 44.3049 157.776 52.0043 153.202 58.1352C148.627 64.2661 141.806 68.3263 134.239 69.4227C126.672 70.519 118.979 68.5617 112.853 63.9813C106.726 59.4009 102.668 52.5726 101.57 44.9986C100.473 37.4246 102.426 29.7252 107.001 23.5943C111.576 17.4634 118.397 13.4032 125.964 12.3068V12.3068Z" fill="#E62429"/>
<path d="M110.858 72.4645L105.083 68.1468L91.8225 85.9175L97.5975 90.2352L110.858 72.4645Z" fill="#E62429"/>
<path d="M126.739 17.6614C132.888 16.7706 139.138 18.3609 144.116 22.0825C149.094 25.8041 152.391 31.3521 153.283 37.506C154.174 43.6599 152.587 49.9156 148.87 54.897C145.153 59.8783 139.611 63.1773 133.463 64.0681C127.315 64.9589 121.065 63.3686 116.087 59.647C111.109 55.9254 107.812 50.3774 106.92 44.2235C106.028 38.0696 107.616 31.8139 111.332 26.8325C115.049 21.8512 120.591 18.5522 126.739 17.6614V17.6614Z" fill="white"/>
</g>
<path d="M7.82802 42.25L12.1249 58.7031L16.4061 42.25H22.4061V65H17.7968V58.8438L18.2186 49.3594L13.6718 65H10.5468L5.99989 49.3594L6.42177 58.8438V65H1.82802V42.25H7.82802ZM35.6499 60.3438H29.3843L28.1655 65H23.3061L30.4155 42.25H34.6186L41.7749 65H36.8686L35.6499 60.3438ZM30.3843 56.5156H34.6343L32.5093 48.4062L30.3843 56.5156ZM49.2061 56.6875H46.9249V65H42.3311V42.25H49.6593C51.9614 42.25 53.7374 42.849 54.9874 44.0469C56.2478 45.2344 56.878 46.9271 56.878 49.125C56.878 52.1458 55.7791 54.2604 53.5811 55.4688L57.5655 64.7812V65H52.628L49.2061 56.6875ZM46.9249 52.8594H49.5343C50.4509 52.8594 51.1384 52.5573 51.5968 51.9531C52.0551 51.3385 52.2843 50.5208 52.2843 49.5C52.2843 47.2188 51.3936 46.0781 49.6124 46.0781H46.9249V52.8594ZM65.528 58.75L69.3561 42.25H74.4811L67.9186 65H63.1374L56.6218 42.25H61.7155L65.528 58.75ZM86.7718 55.1562H79.6155V61.1875H88.0843V65H75.0218V42.25H88.053V46.0781H79.6155V51.4531H86.7718V55.1562ZM93.7343 61.1875H101.797V65H89.1405V42.25H93.7343V61.1875ZM168.279 57V65H163.685V42.25H171.435C173.685 42.25 175.477 42.9479 176.81 44.3438C178.154 45.7396 178.826 47.5521 178.826 49.7812C178.826 52.0104 178.164 53.7708 176.841 55.0625C175.518 56.3542 173.685 57 171.341 57H168.279ZM168.279 53.1719H171.435C172.31 53.1719 172.987 52.8854 173.466 52.3125C173.945 51.7396 174.185 50.9062 174.185 49.8125C174.185 48.6771 173.94 47.776 173.451 47.1094C172.961 46.4323 172.305 46.0885 171.482 46.0781H168.279V53.1719ZM184.898 57V65H180.304V42.25H188.054C190.304 42.25 192.095 42.9479 193.429 44.3438C194.773 45.7396 195.444 47.5521 195.444 49.7812C195.444 52.0104 194.783 53.7708 193.46 55.0625C192.137 56.3542 190.304 57 187.96 57H184.898ZM184.898 53.1719H188.054C188.929 53.1719 189.606 52.8854 190.085 52.3125C190.564 51.7396 190.804 50.9062 190.804 49.8125C190.804 48.6771 190.559 47.776 190.069 47.1094C189.58 46.4323 188.924 46.0885 188.101 46.0781H184.898V53.1719ZM206.532 59.0312C206.532 58.1042 206.292 57.4062 205.813 56.9375C205.344 56.4583 204.485 55.9635 203.235 55.4531C200.954 54.5885 199.313 53.5781 198.313 52.4219C197.313 51.2552 196.813 49.8802 196.813 48.2969C196.813 46.3802 197.49 44.8438 198.844 43.6875C200.209 42.5208 201.938 41.9375 204.032 41.9375C205.428 41.9375 206.673 42.2344 207.766 42.8281C208.86 43.4115 209.699 44.2396 210.282 45.3125C210.876 46.3854 211.173 47.6042 211.173 48.9688H206.594C206.594 47.9062 206.365 47.099 205.907 46.5469C205.459 45.9844 204.808 45.7031 203.954 45.7031C203.152 45.7031 202.527 45.9427 202.079 46.4219C201.631 46.8906 201.407 47.526 201.407 48.3281C201.407 48.9531 201.657 49.5208 202.157 50.0312C202.657 50.5312 203.542 51.0521 204.813 51.5938C207.032 52.3958 208.641 53.3802 209.641 54.5469C210.652 55.7135 211.157 57.1979 211.157 59C211.157 60.9792 210.527 62.526 209.266 63.6406C208.006 64.7552 206.292 65.3125 204.126 65.3125C202.657 65.3125 201.318 65.0104 200.11 64.4062C198.902 63.8021 197.954 62.9375 197.266 61.8125C196.589 60.6875 196.251 59.3594 196.251 57.8281H200.86C200.86 59.1406 201.115 60.0938 201.626 60.6875C202.136 61.2812 202.969 61.5781 204.126 61.5781C205.73 61.5781 206.532 60.7292 206.532 59.0312ZM224.354 55.1562H217.198V61.1875H225.666V65H212.604V42.25H225.635V46.0781H217.198V51.4531H224.354V55.1562ZM237.582 60.3438H231.316L230.098 65H225.238L232.348 42.25H236.551L243.707 65H238.801L237.582 60.3438ZM232.316 56.5156H236.566L234.441 48.4062L232.316 56.5156ZM251.138 56.6875H248.857V65H244.263V42.25H251.591C253.893 42.25 255.669 42.849 256.919 44.0469C258.18 45.2344 258.81 46.9271 258.81 49.125C258.81 52.1458 257.711 54.2604 255.513 55.4688L259.498 64.7812V65H254.56L251.138 56.6875ZM248.857 52.8594H251.466C252.383 52.8594 253.07 52.5573 253.529 51.9531C253.987 51.3385 254.216 50.5208 254.216 49.5C254.216 47.2188 253.326 46.0781 251.544 46.0781H248.857V52.8594ZM275.788 57.4219C275.674 60.0156 274.944 61.9792 273.601 63.3125C272.257 64.6458 270.361 65.3125 267.913 65.3125C265.34 65.3125 263.366 64.4688 261.991 62.7812C260.627 61.0833 259.944 58.6667 259.944 55.5312V51.7031C259.944 48.5781 260.653 46.1719 262.069 44.4844C263.486 42.7865 265.455 41.9375 267.976 41.9375C270.455 41.9375 272.335 42.6302 273.616 44.0156C274.908 45.401 275.642 47.3906 275.819 49.9844H271.21C271.168 48.3802 270.918 47.276 270.46 46.6719C270.012 46.0573 269.184 45.75 267.976 45.75C266.746 45.75 265.877 46.1823 265.366 47.0469C264.856 47.901 264.585 49.3125 264.554 51.2812V55.5781C264.554 57.8385 264.804 59.3906 265.304 60.2344C265.814 61.0781 266.684 61.5 267.913 61.5C269.121 61.5 269.955 61.2083 270.413 60.625C270.871 60.0312 271.132 58.9635 271.194 57.4219H275.788ZM292.969 65H288.391V55.2656H281.61V65H277.016V42.25H281.61V51.4531H288.391V42.25H292.969V65Z" fill="white"/>
<path d="M139.209 56.86L129.617 64.032L129.309 65H136.745L139.209 56.86ZM138.857 55.892L134.105 48.72L132.917 52.636H125.217L138.021 35.124L134.501 47.312L139.693 55.232L150.077 19.724H140.705L101.501 73.008H110.257L120.817 58.444H131.245L130.057 62.404L138.857 55.892Z" fill="#E62429"/>
<defs>
<clipPath id="clip0">
<rect width="86.4866" height="86.5684" fill="white" transform="matrix(-0.989666 0.143393 0.143393 0.989666 160.593 0)"/>
</clipPath>
</defs>
</svg>
